<?xml version="1.0" encoding="utf-8"?>
<!-- Svg Vector Icons : http://www.onlinewebfonts.com/icon -->
<!DOCTYPE svg PUBLIC "-//W3C//DTD SVG 1.1//EN" "http://www.w3.org/Graphics/SVG/1.1/DTD/svg11.dtd">
<svg version="1.1" xmlns="http://www.w3.org/2000/svg" xmlns:xlink="http://www.w3.org/1999/xlink" x="0px" y="0px" viewBox="0 0 1000 1000" enable-background="new 0 0 1000 1000" xml:space="preserve">
<metadata> Svg Vector Icons : http://www.onlinewebfonts.com/icon </metadata>
<g><g transform="translate(0.000000,511.000000) scale(0.100000,-0.100000)"><path d="M4877.1,4982.8c-75.1-31.6-166-136.4-215.4-243.1l-35.6-81l-152.2-13.8c-1081.1-96.8-1964.6-531.7-2482.4-1217.5c-229.3-304.4-504-915.1-504-1120.6c0-120.6,112.7-241.1,225.3-241.1c77.1,0,197.6,67.2,262.9,146.3c67.2,83,134.4,102.8,450.6,132.4c351.8,33.6,782.7,3.9,1047.5-71.2c87-25.7,104.7-39.5,148.2-120.6c120.6-229.3,373.5-223.3,496.1,13.8c31.6,65.2,53.4,81,142.3,104.7c219.4,63.2,369.6,79.1,745.1,79.1s525.7-15.8,743.1-77.1c87-25.7,104.8-39.5,136.4-108.7c55.3-122.5,132.4-177.9,247.1-177.9c112.7,0,195.7,57.3,256.9,179.9c33.6,63.2,55.3,81,144.3,106.7c247.1,73.1,699.7,104.7,1051.5,71.2c312.3-29.6,375.5-49.4,448.6-132.4c71.1-81,189.7-146.3,264.8-146.3c27.7,0,77.1,15.8,106.7,33.6c140.3,81,142.3,233.2,11.9,579.1c-282.6,741.2-723.4,1227.4-1425,1573.2c-419,205.5-865.7,330-1389.4,385.4l-223.3,23.7l-35.6,81C5244.7,4965,5056.9,5061.8,4877.1,4982.8z M5064.8,4650.7c21.7-35.6,49.4-110.7,61.3-166l23.7-100.8l199.6-13.8c1316.3-88.9,2268.9-638.4,2701.7-1563.3c41.5-87,81-183.8,88.9-215.4c11.9-53.4,9.9-57.3-33.6-43.5c-195.7,55.3-361.7,75.1-739.2,85c-468.4,9.9-715.5-15.8-986.2-104.7c-166-55.3-229.2-102.8-229.2-168c0-55.3-31.6-29.6-45.5,35.6c-9.9,47.4-31.6,63.3-146.3,108.7c-268.8,104.7-424.9,124.5-954.6,124.5c-529.7,0-683.8-19.8-956.6-124.5c-120.6-47.4-140.3-61.3-160.1-122.5l-23.7-69.2l-19.8,69.2c-15.8,63.3-31.6,75.1-156.1,122.5c-274.7,104.7-426.9,124.5-956.6,124.5c-476.3-2-533.6-7.9-818.2-81c-55.3-13.8-57.3-11.9-43.5,43.5c7.9,31.6,57.3,146.2,108.7,255c245.1,506,624.6,877.5,1174,1146.3c454.6,221.4,820.2,316.2,1434.9,371.6l262.9,23.7l35.6,114.6c37.5,122.5,88.9,211.5,118.6,211.5C5017.4,4714,5043.1,4684.3,5064.8,4650.7z"/><path d="M4738.7,1978.6C4260.4,1862,3904.7,1441,3865.1,948.9C3823.6,423.2,4165.6-72.9,4679.4-231c292.5-90.9,640.4-47.4,917.1,116.6C5950.2,97.1,6177.5,533.8,6145.9,943c-39.5,498.1-387.4,911.1-873.6,1033.7C5134,2012.2,4877.1,2012.2,4738.7,1978.6z M5132,1709.8c276.7-45.4,531.6-235.2,648.3-488.2c112.7-239.1,96.8-561.3-35.6-788.6c-73.1-124.5-249-278.7-397.3-349.8C5222.9,23.9,5197.2,20,5005.5,20c-197.6,0-215.4,4-357.7,71.2c-183.8,88.9-330.1,233.2-419,411.1c-59.3,124.5-63.2,142.3-63.2,357.7c0,213.4,4,235.2,61.3,355.8c140.3,294.5,424.9,486.2,758.9,511.9C5001.6,1727.6,5066.8,1721.7,5132,1709.8z"/><path d="M6746.7,227.5c-45.4-9.9-179.8-71.1-296.5-136.4c-523.8-294.5-1039.6-456.6-1444.7-456.6c-409.1,0-952.6,173.9-1472.4,470.4l-197.6,112.7h-187.8c-217.4,0-330.1-41.5-456.6-171.9c-207.5-215.4-231.2-577.1-53.4-802.4c35.6-43.5,253-249,482.2-456.5l417-375.5l31.6-124.5c45.5-181.8,92.9-565.2,92.9-753c0-140.3-7.9-179.8-61.3-290.5c-332-697.7-519.8-1130.5-537.6-1241.2c-61.3-349.8,191.7-707.5,547.5-774.8c140.3-25.7,245.1-15.8,401.2,43.5c140.3,51.4,235.2,132.4,349.8,298.4c170,247,630.5,853.8,646.3,853.8c13.8,0,533.6-693.7,675.9-901.2c217.4-322.2,634.4-407.2,960.6-195.7c148.2,96.8,245.1,237.2,292.5,423c53.4,219.4,33.6,288.5-292.5,980.3L6359.4-2668l2,276.7c2,262.9,39.5,551.4,90.9,729.3c19.8,63.3,92.9,138.3,428.9,440.7c225.3,199.6,438.8,405.2,480.3,454.6c251,316.2,130.4,790.6-245.1,952.6C7009.6,233.4,6859.4,249.2,6746.7,227.5z M3412.5-159.9c387.4-211.5,768.8-361.7,1130.5-444.7c272.7-61.3,652.2-61.3,925,0c363.7,83,820.2,268.8,1235.3,505.9c49.4,27.7,118.6,49.4,158.1,49.4c100.8-2,225.3-63.3,278.7-138.4c61.3-87,75.1-245.1,29.6-341.9c-21.7-45.4-187.8-211.5-464.5-458.5c-310.3-278.7-444.7-413.1-472.4-470.4c-92.9-193.7-160.1-602.8-162.1-986.2l-2-262.9l300.4-650.2c296.5-642.3,300.4-652.2,292.5-766.8c-27.7-379.5-515.8-511.9-735.2-197.6c-177.9,256.9-907.2,1229.3-921,1229.3s-308.3-393.3-940.8-1257c-63.2-87-193.7-146.3-322.1-146.3c-229.3,0-397.3,171.9-397.3,409.1c0,81,47.4,193.7,296.5,735.2l296.5,640.3v268.8c0,381.5-65.2,778.7-160.1,982.3c-29.6,61.3-152.2,183.8-474.3,474.3c-239.1,215.4-448.6,415-464.5,444.7c-15.8,31.6-27.7,102.8-27.7,162.1c0,87,11.9,122.5,57.3,185.8c29.6,41.5,87,92.9,122.5,110.7C3112.1-23.5,3193.2-39.3,3412.5-159.9z"/><path d="M4408.6-966.3c-280.6-75.1-450.6-347.9-424.9-681.9c21.7-294.5,207.5-557.4,553.4-780.7c185.8-122.5,405.2-229.3,466.4-229.3c61.3,0,290.5,110.7,468.4,227.3c470.4,306.3,652.2,705.6,511.9,1120.6c-122.5,357.7-581.1,474.3-919,233.2l-57.3-39.5l-87,59.3c-88.9,59.3-276.7,120.6-369.6,116.6C4523.3-940.6,4460-952.4,4408.6-966.3z M4705.1-1262.7c71.2-37.6,164-138.3,237.2-256.9l57.3-94.9l65.2,94.9c138.3,205.5,249,284.6,403.2,284.6c102.8,0,197.6-67.2,241.1-171.9c33.6-79.1,35.6-253,4-343.9c-61.3-179.9-266.8-379.5-545.5-527.7l-160.1-85l-104.8,53.4c-282.6,140.3-502,332-587,507.9c-49.4,100.8-55.3,296.5-13.8,395.3c45.5,108.7,136.4,171.9,251,171.9C4608.3-1235.1,4675.5-1246.9,4705.1-1262.7z"/></g></g>
</svg>