<?xml version="1.0" encoding="utf-8"?>
<!-- Svg Vector Icons : http://www.onlinewebfonts.com/icon -->
<!DOCTYPE svg PUBLIC "-//W3C//DTD SVG 1.1//EN" "http://www.w3.org/Graphics/SVG/1.1/DTD/svg11.dtd">
<svg version="1.1" xmlns="http://www.w3.org/2000/svg" xmlns:xlink="http://www.w3.org/1999/xlink" x="0px" y="0px" viewBox="0 0 1000 1000" enable-background="new 0 0 1000 1000" xml:space="preserve">
<metadata> Svg Vector Icons : http://www.onlinewebfonts.com/icon </metadata>
<g><path d="M570,196.5l20.5,20.5l20.5,20.5h29h280v159.6l-162.1,54l-47.9,16v50.4v385h-35l0-140v-70h-70H255h-70v70v140h-35V587.5v-31.2l-23.2-20.9C94,506,80,479.7,80,447.5c0-32.5,11.5-58.8,34.2-78.1c0.3-0.2,0.6-0.5,0.8-0.7v8.8v70h70h315h70l0-70V196.5 M500,27.5l0,350H185v-105c-76.6,0-175,58-175,175c0,57.4,26.8,101.2,70,140v385h175v-210h350l0,210h175v-455l174.1-58c21.4-7.1,35.9-27.2,35.9-49.8V220c0-29-23.5-52.5-52.5-52.5H640L500,27.5L500,27.5z"/></g>
</svg>