<?xml version="1.0" encoding="utf-8"?>
<!-- Svg Vector Icons : http://www.onlinewebfonts.com/icon -->
<!DOCTYPE svg PUBLIC "-//W3C//DTD SVG 1.1//EN" "http://www.w3.org/Graphics/SVG/1.1/DTD/svg11.dtd">
<svg version="1.1" xmlns="http://www.w3.org/2000/svg" xmlns:xlink="http://www.w3.org/1999/xlink" x="0px" y="0px" viewBox="0 0 1000 1000" enable-background="new 0 0 1000 1000" xml:space="preserve">
<metadata> Svg Vector Icons : http://www.onlinewebfonts.com/icon </metadata>
<g><g transform="translate(0.000000,511.000000) scale(0.100000,-0.100000)"><path d="M154.7,4955.3l-54.7-52.5V110v-4792.8l54.7-52.5l52.5-54.7H5000h4792.8l52.5,54.7l54.7,52.5V110v4792.8l-54.7,52.5l-52.5,54.7H5000H207.2L154.7,4955.3z M3250,3260V1860H1850H450v1400v1400h1400h1400V3260z M6400,3260V1860H5000H3600v1400v1400h1400h1400V3260z M9550,3260V1860H8150H6750v1400v1400h1400h1400V3260z M3250,110v-1400H1850H450V110v1400h1400h1400V110z M6400,110v-1400H5000H3600V110v1400h1400h1400V110z M9550,110v-1400H8150H6750V110v1400h1400h1400V110z M3250-3040v-1400H1850H450v1400v1400h1400h1400V-3040z M6400-3040v-1400H5000H3600v1400v1400h1400h1400V-3040z M9550-3040v-1400H8150H6750v1400v1400h1400h1400V-3040z"/><path d="M1222.2,3927.2c-91.9-65.6-74.4-264.7,26.3-304.1c19.7-6.6,203.4-13.1,406.9-13.1H2025l-306.2-409.1c-168.4-223.1-306.3-424.4-306.3-446.2c0-118.1,118.1-214.4,227.5-185.9c35,8.7,183.7,188.1,481.2,586.3c463.8,616.9,479.1,647.5,374.1,750.3l-52.5,54.7h-586.3C1368.7,3960,1261.6,3953.4,1222.2,3927.2z"/><path d="M4919.1,3938.1c-26.2-10.9-56.9-39.4-70-63.4c-26.3-45.9-35-1152.8-10.9-1216.2c19.7-50.3,135.6-105,196.9-89.7c28.5,8.7,72.2,35,96.3,61.3c41.6,45.9,43.8,74.4,43.8,634.4v588.4l-54.7,52.5C5065.6,3962.2,5002.2,3970.9,4919.1,3938.1z"/><path d="M7546.3,3933.7c-52.5-24.1-96.3-105-96.3-175c0-28.4,83.1-131.3,223.1-271.2l223.1-227.5l-223.1-227.5c-140-140-223.1-242.8-223.1-271.2c0-113.8,87.5-201.3,201.3-201.3c28.4,0,131.2,83.1,271.2,223.1l227.5,223.1l227.5-223.1c140-140,242.8-223.1,271.2-223.1c113.8,0,201.3,87.5,201.3,201.3c0,28.4-83.1,131.2-223.1,271.2L8403.7,3260l223.1,227.5c140,140,223.1,242.8,223.1,271.2c0,113.8-87.5,201.3-201.3,201.3c-28.4,0-131.3-83.1-271.2-223.1L8150,3513.7l-227.5,223.1C7690.6,3966.6,7653.4,3986.3,7546.3,3933.7z"/><path d="M2029.4,969.7c-15.3-6.6-218.7-266.9-452.8-577.5c-435.3-579.7-465.9-634.4-398.1-721.9c54.7-72.2,120.3-85.3,439.7-85.3h319.4v-120.3c0-185.9,102.8-271.3,247.2-205.6c70,30.6,102.8,107.2,102.8,227.5c0,96.3,2.2,98.4,67.8,98.4c85.3,0,194.7,105,194.7,185.9c0,83.1-89.7,164.1-183.8,164.1h-76.6l-6.6,483.4c-6.6,476.9-6.6,483.4-59.1,525C2175.9,982.8,2090.6,993.8,2029.4,969.7z M1930.9-58.4c-6.6-4.4-65.6-6.6-131.2-2.2l-122.5,6.6L1801.9,110l124.7,164.1l6.6-161.9C1937.5,24.7,1935.3-51.9,1930.9-58.4z"/><path d="M4396.2,783.7c-52.5-24.1-96.3-105-96.3-175c0-28.4,83.1-131.3,223.1-271.2L4746.2,110l-223.1-227.5c-140-140-223.1-242.8-223.1-271.2c0-113.8,87.5-201.3,201.3-201.3c28.4,0,131.3,83.1,271.2,223.1L5000-143.7l227.5-223.1c140-140,242.8-223.1,271.2-223.1c113.8,0,201.3,87.5,201.3,201.3c0,28.4-83.1,131.3-223.1,271.2L5253.7,110l223.1,227.5c140,140,223.1,242.8,223.1,271.2c0,113.8-87.5,201.3-201.3,201.3c-28.4,0-131.3-83.1-271.2-223.1L5000,363.8l-227.5,223.1C4540.6,816.6,4503.4,836.3,4396.2,783.7z"/><path d="M1710-2186.9c-168.4-50.3-345.6-249.4-374.1-417.8c-19.7-118.1,4.4-245,67.8-336.9c65.6-96.3,65.6-100.6,0-196.9c-146.6-216.6-67.8-525,175-686.9c175-115.9,367.5-115.9,542.5,0c242.8,161.9,321.6,470.3,175,686.9c-28.4,43.8-52.5,87.5-52.5,98.4s24.1,54.7,52.5,98.4c102.8,150.9,98.4,354.4-10.9,520.6C2151.9-2217.5,1920-2125.6,1710-2186.9z M1981.2-2558.7c28.4-28.4,43.8-72.2,43.8-131.3s-15.3-102.8-43.8-131.3s-72.2-43.8-131.2-43.8s-102.8,15.3-131.3,43.8s-43.8,72.2-43.8,131.3c0,115.9,59.1,175,175,175C1909.1-2515,1952.8-2530.3,1981.2-2558.7z M1981.2-3258.7c50.3-50.3,59.1-188.1,15.3-249.4c-17.5-24.1-67.8-43.8-129.1-50.3c-80.9-8.7-107.2-4.4-146.6,35c-61.3,61.2-63.4,203.4-2.2,264.7c28.4,28.4,72.2,43.8,131.3,43.8S1952.8-3230.3,1981.2-3258.7z"/><path d="M7506.9-2396.9c-105-107.2-85.3-161.9,166.3-415.6l223.1-227.5l-223.1-227.5c-140-140-223.1-242.8-223.1-271.2c0-113.8,87.5-201.3,201.3-201.3c28.4,0,131.2,83.1,271.2,223.1l227.5,223.1l227.5-223.1c140-140,242.8-223.1,271.2-223.1c113.8,0,201.3,87.5,201.3,201.3c0,28.4-83.1,131.3-223.1,271.2L8403.7-3040l223.1,227.5c140,140,223.1,242.8,223.1,271.2c0,113.8-87.5,201.3-201.3,201.3c-28.4,0-131.3-83.1-271.2-223.1L8150-2786.3l-227.5,223.1C7668.7-2311.6,7614.1-2291.9,7506.9-2396.9z"/></g></g>
</svg>