<?xml version="1.0" encoding="utf-8"?>
<!-- Svg Vector Icons : http://www.onlinewebfonts.com/icon -->
<!DOCTYPE svg PUBLIC "-//W3C//DTD SVG 1.1//EN" "http://www.w3.org/Graphics/SVG/1.1/DTD/svg11.dtd">
<svg version="1.1" xmlns="http://www.w3.org/2000/svg" xmlns:xlink="http://www.w3.org/1999/xlink" x="0px" y="0px" viewBox="0 0 1000 1000" enable-background="new 0 0 1000 1000" xml:space="preserve">
<metadata> Svg Vector Icons : http://www.onlinewebfonts.com/icon </metadata>
<g><path d="M539.2,574.4H651v-31.6V439.3H506.4v249.2h32.8V574.4z M539.2,470.3h85.9v72.5h-85.9V470.3z"/><path d="M761,660.8h-20.4V466.5H761v-28.1h-70.1v28.1h20.4v194.3h-20.4v28.1H761V660.8z"/><path d="M300.4,610.3h109.9l32.6,78.6h32L371.3,439.3h-32L235.7,688.9h32L300.4,610.3z M355.3,477.9l44,106.1h-88L355.3,477.9z"/><path d="M10,10v980h980V10H10z M882.8,787.1H117.2V356.4h765.6V787.1z M882.8,308.6H117.2v-95.7h765.6V308.6z"/></g>
</svg>