<?xml version="1.0" encoding="utf-8"?>
<!-- Svg Vector Icons : http://www.onlinewebfonts.com/icon -->
<!DOCTYPE svg PUBLIC "-//W3C//DTD SVG 1.1//EN" "http://www.w3.org/Graphics/SVG/1.1/DTD/svg11.dtd">
<svg version="1.1" xmlns="http://www.w3.org/2000/svg" xmlns:xlink="http://www.w3.org/1999/xlink" x="0px" y="0px" viewBox="0 0 1000 1000" enable-background="new 0 0 1000 1000" xml:space="preserve">
<metadata> Svg Vector Icons : http://www.onlinewebfonts.com/icon </metadata>
<g><path d="M221.7,512.2c0-4.2-2.2-8.1-5.7-10.2l-94.5-55.8c-1.6-1-3.4-1.5-5.2-1.5h-1c-1.8,0.1-3.6,0.6-5.2,1.5l-94.5,55.8c-3.5,2.1-5.7,6-5.7,10.2l0.2,150.1c0,2.1,1.1,4,2.8,5.1c1.8,1.1,3.9,1.1,5.7,0l56.1-33c3.6-2.2,5.7-6,5.7-10.2v-70.1c0-4.2,2.2-8.1,5.7-10.1l23.9-14.1c1.8-1.1,3.7-1.6,5.7-1.6c1.9,0,3.9,0.5,5.7,1.6l23.9,14.1c3.5,2.1,5.7,6,5.7,10.1v70.1c0,4.2,2.2,8,5.7,10.2l56.1,33c1.8,1.1,4,1.1,5.7,0c1.7-1,2.8-3,2.8-5.1L221.7,512.2"/><path d="M664.1,590.4c0,1-0.5,2-1.4,2.5l-32.4,19.2c-0.9,0.5-2,0.5-2.8,0l-32.5-19.2c-0.9-0.5-1.4-1.5-1.4-2.5V552c0-1,0.5-2,1.4-2.5l32.4-19.2c0.9-0.5,2-0.5,2.9,0l32.4,19.2c0.9,0.5,1.4,1.5,1.4,2.5V590.4 M672.9,305.9c-1.8-1-3.9-1-5.7,0.1c-1.7,1.1-2.8,3-2.8,5v148.6c0,1.5-0.8,2.8-2,3.5c-1.2,0.7-2.8,0.7-4,0l-23.7-14c-3.5-2.1-7.9-2.1-11.4,0l-94.5,55.9c-3.5,2.1-5.7,5.9-5.7,10.1v111.9c0,4.2,2.2,8,5.7,10.1l94.5,56c3.5,2.1,7.9,2.1,11.4,0l94.5-56c3.5-2.1,5.7-6,5.7-10.1V348.3c0-4.2-2.2-8.1-5.9-10.2L672.9,305.9z"/><path d="M984.3,551c3.5-2.1,5.7-5.9,5.7-10.1v-27.1c0-4.2-2.2-8-5.7-10.1l-93.9-55.9c-3.5-2.1-7.9-2.1-11.4,0l-94.5,55.9c-3.5,2.1-5.7,6-5.7,10.1v111.8c0,4.2,2.2,8.1,5.8,10.2l93.9,54.9c3.5,2,7.7,2,11.2,0.1l56.8-32.4c1.8-1,2.9-3,2.9-5.1c0-2.1-1.1-4.1-2.9-5.1l-95.1-56c-1.8-1-2.9-3-2.9-5.1v-35.1c0-2.1,1.1-4,2.9-5.1l29.6-17.5c1.8-1,3.9-1,5.7,0l29.6,17.5c1.8,1,2.9,3,2.9,5.1v27.6c0,2.1,1.1,4,2.9,5.1c1.8,1,3.9,1,5.7,0L984.3,551"/><path d="M366.9,447.1c3.5-2.1,7.9-2.1,11.4,0l94.5,55.9c3.5,2.1,5.7,6,5.7,10.1v111.9c0,4.2-2.2,8-5.7,10.1l-94.5,56c-3.5,2.1-7.9,2.1-11.4,0l-94.5-56c-3.5-2.1-5.7-6-5.7-10.1V513.2c0-4.2,2.2-8,5.7-10.1L366.9,447.1"/><path d="M884.4,598.1L860,583.6v-28.9l24.4-14.5l24.4,14.5v28.9L884.4,598.1z"/></g>
</svg>