<?xml version="1.0" encoding="utf-8"?>
<!-- Svg Vector Icons : http://www.onlinewebfonts.com/icon -->
<!DOCTYPE svg PUBLIC "-//W3C//DTD SVG 1.1//EN" "http://www.w3.org/Graphics/SVG/1.1/DTD/svg11.dtd">
<svg version="1.1" xmlns="http://www.w3.org/2000/svg" xmlns:xlink="http://www.w3.org/1999/xlink" x="0px" y="0px" viewBox="0 0 1000 1000" enable-background="new 0 0 1000 1000" xml:space="preserve">
<metadata> Svg Vector Icons : http://www.onlinewebfonts.com/icon </metadata>
<g><path d="M229.9,712l548.6,4.1L366.8,570L229.9,712z M401.4,534.2l403.3,148.7L641.8,285.1L401.4,534.2z M804.6,116.3L676.4,249.2l160.9,405.8L804.6,116.3z M383.5,487l215.5-223.4l-224.4-0.9L383.5,487z M550,61.1L393,223.7l224,0.9L550,61.1z M174.3,450.5l171.2,63.1l-9.1-231L174.3,450.5z M772.1,84.3l-176.4-32l61.8,150.8L772.1,84.3z M207,669.9l113-117.1l-149.5-55.1L207,669.9z M124,464.9L563.1,10l277.5,50.4L876,755.8l-691.5-6.1L124,464.9z"/><path d="M386.4,941.9L353.9,882h-22v59.9h-31.7V783.6h55.2c33.2,0,59.5,11.6,59.5,47.9c0,23.7-12,38.5-30.2,45.6l37,64.8H386.4z M331.8,856.9h20.5c20.3,0,31.4-8.6,31.4-25.5c0-17.1-11.1-22.9-31.4-22.9h-20.5V856.9z"/><path d="M442.2,896.9v-74.9h31.4v70.8c0,18.6,5.1,25,16.7,25c9.8,0,16.3-4.3,24.4-15v-80.9h31.4v119.8h-25.7l-2.4-17.1h-0.9c-10.3,12.2-21.8,20.1-38.3,20.1C453.3,944.9,442.2,926.9,442.2,896.9z"/><path d="M607.8,929.2h-0.6l-2.8,12.6h-24.6V771.2H611v43l-0.6,19.3c9.4-8.6,21.4-14.3,33.2-14.3c29.5,0,47.3,24.2,47.3,60.8c0,41.3-24.6,65-50.9,65C629.2,944.9,617.6,939.3,607.8,929.2z M658.5,880.5c0-22.9-7.3-35.5-23.7-35.5c-8.1,0-15.4,4.1-23.7,12.4V910c7.5,6.6,15.4,9,21.8,9C647.4,919,658.5,906.6,658.5,880.5z"/><path d="M709.8,987.6l5.8-24.2c2.1,0.6,5.6,1.5,8.3,1.5c12.2,0,19-7.7,22.5-18.2l2.1-7.1l-46.6-117.7h31.7l19,55.6c3.6,10.7,6.6,22.2,10.1,33.8h1.1c2.8-11.1,5.8-22.7,8.6-33.8l16.5-55.6h30.2l-42.6,123.4C765.9,973.7,753,990,726.3,990C719.2,990,714.5,989.1,709.8,987.6z"/></g>
</svg>