<?xml version="1.0" encoding="utf-8"?>
<!-- Svg Vector Icons : http://www.onlinewebfonts.com/icon -->
<!DOCTYPE svg PUBLIC "-//W3C//DTD SVG 1.1//EN" "http://www.w3.org/Graphics/SVG/1.1/DTD/svg11.dtd">
<svg version="1.1" xmlns="http://www.w3.org/2000/svg" xmlns:xlink="http://www.w3.org/1999/xlink" x="0px" y="0px" viewBox="0 0 1000 1000" enable-background="new 0 0 1000 1000" xml:space="preserve">
<metadata> Svg Vector Icons : http://www.onlinewebfonts.com/icon </metadata>
<g><path d="M881.4,209.6L560.8,24.5c-33.4-19.3-88.1-19.3-121.5,0L118.6,209.6c-33.4,19.3-60.8,66.6-60.8,105.2v370.3c0,38.6,27.3,85.9,60.8,105.2l320.7,185.2c33.4,19.3,88.1,19.3,121.5,0l320.7-185.2c33.4-19.3,60.8-66.6,60.8-105.2l0-370.3C942.2,276.3,914.9,228.9,881.4,209.6z M605,500c0,118.1-95.7,213.7-213.7,213.7S177.5,618.1,177.5,500l0,0l0-163.1c0-28,22.7-50.6,50.6-50.6c28,0,50.6,22.7,50.6,50.6V500c0,62.1,50.4,112.5,112.5,112.5S503.8,562.1,503.8,500V336.9c0-28,22.7-50.6,50.6-50.6c28,0,50.6,22.7,50.6,50.6V500z M822.5,663.1c0,28-22.7,50.6-50.6,50.6c-28,0-50.6-22.7-50.6-50.6V336.9c0-28,22.7-50.6,50.6-50.6c28,0,50.6,22.7,50.6,50.6V663.1z"/></g>
</svg>